<svg xmlns="http://www.w3.org/2000/svg" viewBox="-55.453 202.251 640.311 93.902" xmlns:bx="https://boxy-svg.com">
  <g transform="matrix(1, 0, 0, 1, -0.812732, -16.269497)">
    <bx:title>Cyberpath</bx:title>
    <path d="M -18.934 283.939 Q -25.787 283.939 -31.261 281.002 Q -36.734 278.065 -39.894 272.325 Q -43.053 266.584 -43.053 258.04 Q -43.053 249.407 -39.938 243.622 Q -36.823 237.837 -31.261 234.945 Q -25.698 232.052 -18.578 232.052 Q -12.704 232.052 -8.165 234.188 Q -3.626 236.324 -0.556 240.374 Q 2.515 244.423 3.583 250.297 L -0.6 250.297 Q -1.49 245.58 -4.027 242.332 Q -6.563 239.083 -10.257 237.437 Q -13.95 235.79 -18.578 235.79 Q -28.012 235.79 -33.486 241.486 Q -38.959 247.182 -38.959 257.862 Q -38.959 268.898 -33.575 274.55 Q -28.19 280.201 -18.934 280.201 Q -13.861 280.201 -9.945 278.51 Q -6.029 276.819 -3.582 273.615 Q -1.134 270.411 -0.333 265.783 L 4.028 265.783 Q 2.96 271.568 -0.066 275.618 Q -3.092 279.667 -7.854 281.803 Q -12.615 283.939 -18.934 283.939 Z" style="fill: rgb(51, 51, 51); text-wrap-mode: nowrap;"></path>
    <path d="M 6.959 298.891 L 6.959 295.509 L 11.587 295.509 Q 12.833 295.509 13.634 295.064 Q 14.435 294.619 15.281 293.418 Q 16.126 292.216 17.194 289.902 L 21.644 280.201 L 7.493 246.915 L 11.765 246.915 L 23.78 275.751 L 36.507 246.915 L 40.868 246.915 L 20.754 290.614 Q 19.597 293.284 18.618 294.931 Q 17.639 296.577 16.66 297.467 Q 15.681 298.357 14.48 298.624 Q 13.278 298.891 11.765 298.891 Z" style="fill: rgb(51, 51, 51); text-wrap-mode: nowrap;"></path>
    <path d="M 64.449 283.939 Q 60.889 283.939 58.397 282.693 Q 55.905 281.447 54.259 279.667 Q 52.612 277.887 51.767 276.33 Q 50.921 274.772 50.743 274.327 L 50.565 274.327 L 49.853 283.049 L 46.382 283.049 L 46.382 232.942 L 50.654 232.942 L 50.654 256.705 L 50.832 256.705 Q 51.01 256.082 51.767 254.525 Q 52.523 252.967 54.081 251.187 Q 55.638 249.407 58.175 248.161 Q 60.711 246.915 64.449 246.915 Q 69.611 246.915 73.216 249.363 Q 76.82 251.81 78.734 256.038 Q 80.647 260.265 80.647 265.427 Q 80.647 270.678 78.734 274.861 Q 76.82 279.044 73.216 281.492 Q 69.611 283.939 64.449 283.939 Z M 63.915 280.112 Q 68.365 280.112 71.169 278.021 Q 73.972 275.929 75.263 272.503 Q 76.553 269.076 76.553 265.427 Q 76.553 261.689 75.129 258.352 Q 73.705 255.014 70.768 252.923 Q 67.831 250.831 63.381 250.831 Q 59.821 250.831 56.973 252.567 Q 54.125 254.302 52.434 257.551 Q 50.743 260.799 50.743 265.427 Q 50.743 270.055 52.523 273.393 Q 54.303 276.73 57.285 278.421 Q 60.266 280.112 63.915 280.112 Z" style="fill: rgb(51, 51, 51); text-wrap-mode: nowrap;"></path>
    <path d="M 103.165 283.939 Q 97.38 283.939 93.598 281.18 Q 89.815 278.421 87.946 274.105 Q 86.077 269.788 86.166 265.16 Q 86.166 260.354 88.124 256.171 Q 90.082 251.988 93.865 249.452 Q 97.647 246.915 103.076 246.915 Q 107.615 246.915 111.131 248.918 Q 114.646 250.92 116.782 254.525 Q 118.918 258.129 119.185 263.113 Q 119.274 263.558 119.274 264.181 Q 119.274 264.804 119.274 265.338 L 90.082 265.338 Q 90.082 272.191 93.509 276.285 Q 96.935 280.379 103.165 280.379 Q 107.704 280.379 111.042 277.976 Q 114.379 275.573 115.18 271.479 L 119.185 271.479 Q 118.562 275.128 116.337 277.932 Q 114.112 280.735 110.73 282.337 Q 107.348 283.939 103.165 283.939 Z M 90.349 262.668 L 115.091 262.668 Q 115.002 260.977 114.335 258.886 Q 113.667 256.794 112.243 254.836 Q 110.819 252.878 108.55 251.632 Q 106.28 250.386 103.076 250.386 Q 100.139 250.386 97.914 251.41 Q 95.689 252.433 94.132 254.124 Q 92.574 255.815 91.64 257.996 Q 90.705 260.176 90.349 262.668 Z" style="fill: rgb(51, 51, 51); text-wrap-mode: nowrap;"></path>
    <path d="M 127.814 283.049 L 127.814 246.915 L 131.285 246.915 L 131.908 257.328 L 131.819 265.071 L 131.819 283.049 Z M 131.819 265.605 L 131.552 257.773 Q 131.73 255.637 132.665 253.679 Q 133.599 251.721 135.335 250.208 Q 137.07 248.695 139.518 247.805 Q 141.965 246.915 145.258 246.915 L 147.216 246.915 L 147.216 251.454 L 145.258 251.454 Q 140.719 251.454 138.005 252.567 Q 135.29 253.679 133.955 255.593 Q 132.62 257.506 132.22 260.087 Q 131.819 262.668 131.819 265.605 Z" style="fill: rgb(51, 51, 51); text-wrap-mode: nowrap;"></path>
    <path d="M 170.889 283.939 Q 167.329 283.939 164.837 282.693 Q 162.345 281.447 160.743 279.667 Q 159.141 277.887 158.296 276.33 Q 157.45 274.772 157.183 274.327 L 157.005 274.327 L 157.005 297.289 L 152.911 297.289 L 152.911 246.915 L 156.382 246.915 L 157.094 256.705 L 157.272 256.705 Q 157.539 256.082 158.251 254.525 Q 158.963 252.967 160.521 251.187 Q 162.078 249.407 164.615 248.161 Q 167.151 246.915 170.8 246.915 Q 176.051 246.915 179.656 249.407 Q 183.26 251.899 185.174 256.082 Q 187.087 260.265 187.087 265.516 Q 187.087 270.767 185.129 274.95 Q 183.171 279.133 179.567 281.536 Q 175.962 283.939 170.889 283.939 Z M 170.444 280.112 Q 174.894 280.112 177.698 278.021 Q 180.501 275.929 181.792 272.503 Q 183.082 269.076 183.082 265.427 Q 183.082 261.689 181.658 258.352 Q 180.234 255.014 177.253 252.923 Q 174.271 250.831 169.821 250.831 Q 166.261 250.831 163.413 252.567 Q 160.565 254.302 158.919 257.551 Q 157.272 260.799 157.272 265.427 Q 157.272 270.055 159.052 273.393 Q 160.832 276.73 163.814 278.421 Q 166.795 280.112 170.444 280.112 Z" style="fill: rgb(51, 51, 51); text-wrap-mode: nowrap;"></path>
    <path d="M 206.215 283.85 Q 201.231 283.85 197.938 281.358 Q 194.645 278.866 193.043 274.639 Q 191.441 270.411 191.441 265.249 Q 191.441 259.82 193.088 255.637 Q 194.734 251.454 198.072 249.007 Q 201.409 246.559 206.215 246.559 Q 208.885 246.559 210.932 247.271 Q 212.979 247.983 214.581 249.14 Q 216.183 250.297 217.296 251.766 Q 218.408 253.234 219.031 254.925 L 219.12 254.925 L 219.12 246.915 L 223.303 246.915 L 223.303 283.049 L 219.921 283.049 L 219.209 275.573 L 219.031 275.573 Q 218.319 277.175 217.207 278.644 Q 216.094 280.112 214.492 281.314 Q 212.89 282.515 210.843 283.183 Q 208.796 283.85 206.215 283.85 Z M 207.728 280.112 Q 211.555 280.112 214.092 278.332 Q 216.628 276.552 217.874 273.215 Q 219.12 269.877 219.12 265.338 Q 219.12 260.354 217.785 257.106 Q 216.45 253.857 213.914 252.166 Q 211.377 250.475 207.728 250.475 Q 203.545 250.475 200.831 252.433 Q 198.116 254.391 196.826 257.684 Q 195.535 260.977 195.535 265.249 Q 195.535 269.61 196.87 272.992 Q 198.205 276.374 200.92 278.243 Q 203.634 280.112 207.728 280.112 Z" style="fill: rgb(51, 51, 51); text-wrap-mode: nowrap;"></path>
    <path d="M 237.813 283.049 Q 235.054 283.049 234.209 281.447 Q 233.363 279.845 233.363 277.62 L 233.363 249.496 L 237.279 249.496 L 237.279 279.578 L 245.734 279.578 L 245.734 283.049 Z M 227.4 250.208 L 227.4 246.915 Q 229.803 246.915 231.094 246.737 Q 232.384 246.559 232.874 245.714 Q 233.363 244.868 233.497 242.955 Q 233.63 241.041 233.63 237.57 L 237.279 237.57 L 237.279 246.915 L 245.734 246.915 L 245.734 250.208 Z" style="fill: rgb(51, 51, 51); text-wrap-mode: nowrap;"></path>
    <path d="M 253.647 283.049 L 253.647 232.942 L 257.741 232.942 L 257.741 256.527 L 257.919 256.527 Q 258.097 255.904 258.809 254.391 Q 259.521 252.878 261.034 251.143 Q 262.547 249.407 264.995 248.161 Q 267.442 246.915 271.091 246.915 Q 274.829 246.915 277.321 247.983 Q 279.813 249.051 281.371 250.92 Q 282.928 252.789 283.729 255.148 Q 284.53 257.506 284.797 260.043 Q 285.064 262.579 285.064 265.16 L 285.064 283.049 L 281.148 283.049 L 281.148 265.16 Q 281.148 260.71 280.169 257.462 Q 279.19 254.213 276.876 252.433 Q 274.562 250.653 270.379 250.653 Q 266.107 250.653 263.304 252.789 Q 260.5 254.925 259.121 258.396 Q 257.741 261.867 257.741 265.961 L 257.741 283.049 Z" style="fill: rgb(51, 51, 51); text-wrap-mode: nowrap;"></path>
  </g>
  <g transform="matrix(1, 0, 0, 1, 3.157758, -38.091)">
    <bx:title>CertDb+dot</bx:title>
    <g transform="matrix(1, 0, 0, 1, -3.97, 21.822001)">
      <bx:title>CertDb</bx:title>
      <path d="M 337.757 283.939 Q 330.726 283.939 325.03 281.047 Q 319.334 278.154 315.996 272.458 Q 312.659 266.762 312.659 258.218 Q 312.748 249.852 316.041 243.978 Q 319.334 238.104 325.074 235.078 Q 330.815 232.052 338.024 232.052 Q 344.966 232.052 349.861 234.544 Q 354.756 237.036 357.737 241.308 Q 360.719 245.58 361.609 250.92 L 352.264 250.92 Q 351.641 247.004 349.371 244.735 Q 347.102 242.465 344.076 241.531 Q 341.05 240.596 338.024 240.596 Q 330.103 240.596 325.875 245.046 Q 321.648 249.496 321.648 257.595 Q 321.648 266.228 325.786 270.856 Q 329.925 275.484 337.846 275.484 Q 341.139 275.484 344.254 274.461 Q 347.369 273.437 349.594 271.079 Q 351.819 268.72 352.442 264.715 L 361.876 264.715 Q 360.897 270.144 357.96 274.55 Q 355.023 278.955 349.994 281.447 Q 344.966 283.939 337.757 283.939 Z" style="fill: rgb(51, 51, 51); text-wrap-mode: nowrap;"></path>
      <path d="M 384.921 283.939 Q 378.602 283.939 374.641 281.225 Q 370.681 278.51 368.767 274.238 Q 366.854 269.966 366.765 265.338 Q 366.676 259.82 368.856 255.504 Q 371.037 251.187 375.086 248.74 Q 379.136 246.292 384.654 246.292 Q 389.549 246.292 393.465 248.428 Q 397.381 250.564 399.65 254.391 Q 401.92 258.218 402.009 263.558 Q 402.009 263.736 402.009 264.582 Q 402.009 265.427 402.009 265.872 L 375.398 265.872 Q 375.398 270.945 377.934 273.66 Q 380.471 276.374 384.743 276.374 Q 388.125 276.374 390.394 274.683 Q 392.664 272.992 393.109 270.233 L 401.92 270.233 Q 401.564 274.06 399.428 277.175 Q 397.292 280.29 393.643 282.115 Q 389.994 283.939 384.921 283.939 Z M 375.665 261.778 L 392.931 261.778 Q 392.842 261.155 392.575 259.82 Q 392.308 258.485 391.418 257.061 Q 390.528 255.637 388.837 254.658 Q 387.146 253.679 384.476 253.679 Q 381.806 253.679 380.115 254.569 Q 378.424 255.459 377.534 256.794 Q 376.644 258.129 376.199 259.464 Q 375.754 260.799 375.665 261.778 Z" style="fill: rgb(51, 51, 51); text-wrap-mode: nowrap;"></path>
      <path d="M 409.39 283.049 L 409.39 246.47 L 417.845 246.47 L 418.557 257.15 L 418.468 264.982 L 418.468 283.049 Z M 418.468 267.296 L 418.201 259.197 Q 418.201 257.328 418.913 255.148 Q 419.625 252.967 421.271 251.009 Q 422.918 249.051 425.588 247.761 Q 428.258 246.47 432.174 246.47 L 433.509 246.47 L 433.509 256.616 L 432.174 256.616 Q 428.347 256.616 425.677 257.195 Q 423.007 257.773 421.449 259.019 Q 419.892 260.265 419.18 262.312 Q 418.468 264.359 418.468 267.296 Z" style="fill: rgb(51, 51, 51); text-wrap-mode: nowrap;"></path>
      <path d="M 452.227 283.049 Q 447.866 283.049 445.685 280.913 Q 443.505 278.777 443.505 273.971 L 443.505 251.899 L 451.96 251.899 L 451.96 275.929 L 460.504 275.929 L 460.504 283.049 Z M 437.987 252.878 L 437.987 246.47 Q 439.945 246.47 441.191 246.203 Q 442.437 245.936 443.193 245.046 Q 443.95 244.156 444.306 242.287 Q 444.662 240.418 444.662 237.125 L 451.96 237.125 L 451.96 246.47 L 460.326 246.47 L 460.326 252.878 Z" style="fill: rgb(51, 51, 51); text-wrap-mode: nowrap;"></path>
      <path d="M 478.663 275.573 L 478.663 240.774 L 486.05 240.774 Q 491.924 240.774 496.196 242.688 Q 500.468 244.601 502.782 248.384 Q 505.096 252.166 505.096 257.862 Q 505.096 263.291 503.806 266.762 Q 502.515 270.233 499.979 272.147 Q 497.442 274.06 493.971 274.817 Q 490.5 275.573 486.05 275.573 Q 485.338 275.573 483.603 275.573 Q 481.867 275.573 478.663 275.573 Z M 514.797 257.951 Q 514.797 249.585 510.926 244.067 Q 507.054 238.549 500.023 235.746 Q 492.992 232.942 483.469 232.942 Q 482.134 232.942 479.064 232.942 Q 475.993 232.942 469.674 232.942 L 469.674 283.049 Q 475.637 283.049 478.841 283.049 Q 482.045 283.049 483.469 283.049 Q 492.992 283.049 500.023 280.913 Q 507.054 278.777 510.926 273.304 Q 514.797 267.83 514.797 257.951 Z" style="fill: rgb(51, 51, 51); text-wrap-mode: nowrap;"></path>
      <path d="M 543.626 283.939 Q 540.333 283.939 538.019 282.916 Q 535.705 281.892 534.237 280.468 Q 532.768 279.044 532.101 277.887 Q 531.433 276.73 531.344 276.552 L 531.166 276.552 L 529.653 283.049 L 521.821 283.049 L 521.821 232.942 L 531.166 232.942 L 531.166 254.48 L 531.344 254.48 Q 531.433 254.213 532.056 252.967 Q 532.679 251.721 534.059 250.208 Q 535.438 248.695 537.797 247.583 Q 540.155 246.47 543.626 246.47 Q 549.055 246.47 552.348 248.829 Q 555.641 251.187 557.199 255.415 Q 558.756 259.642 558.756 265.427 Q 558.756 270.945 557.243 275.128 Q 555.73 279.311 552.393 281.625 Q 549.055 283.939 543.626 283.939 Z M 540.689 276.285 Q 544.338 276.285 546.341 274.728 Q 548.343 273.17 549.1 270.634 Q 549.856 268.097 549.856 265.338 Q 549.856 262.579 549.055 260.087 Q 548.254 257.595 546.207 256.082 Q 544.16 254.569 540.422 254.569 Q 537.129 254.569 535.082 255.949 Q 533.035 257.328 532.145 259.776 Q 531.255 262.223 531.255 265.338 Q 531.255 268.542 532.19 270.99 Q 533.124 273.437 535.216 274.861 Q 537.307 276.285 540.689 276.285 Z" style="fill: rgb(51, 51, 51); text-wrap-mode: nowrap;"></path>
    </g>
    <path d="M 566.153 304.871 C 564.633 304.871 563.593 304.431 563.033 303.551 C 562.473 302.671 562.193 301.631 562.193 300.431 C 562.193 299.231 562.473 298.171 563.033 297.251 C 563.593 296.331 564.633 295.871 566.153 295.871 C 567.673 295.871 568.713 296.331 569.273 297.251 C 569.833 298.171 570.113 299.231 570.113 300.431 C 570.113 301.631 569.833 302.671 569.273 303.551 C 568.713 304.431 567.673 304.871 566.153 304.871 Z" style="fill: rgb(211, 19, 191); text-wrap-mode: nowrap;"></path>
  </g>
  <defs>
    <style bx:fonts="Darker Grotesque">@import url(https://fonts.googleapis.com/css2?family=Darker+Grotesque%3Aital%2Cwght%400%2C300..900&amp;display=swap);</style>
  </defs>
</svg>
